<svg xmlns="http://www.w3.org/2000/svg" width="1120" height="780" viewBox="0 0 1120 780">
<rect width="100%" height="100%" fill="white"/>
<style>text{font-family:Arial,sans-serif;fill:#202124}.title{font-size:22px;font-weight:600}.subtitle{font-size:16px;font-weight:600}.tick{font-size:12px}.legend{font-size:13px}.note{font-size:12px;fill:#555}</style>
<text x="560.0" y="32" text-anchor="middle" class="title">V10Y — chaîne exploratoire impact + feux localisés + gravité</text>
<text x="100.0" y="57.0" class="subtitle">Initiation : demande / capacité maximale sur les étages 93–99</text>
<line x1="100.00" y1="75.00" x2="100.00" y2="345.00" stroke="#e0e0e0"/>
<text x="100.00" y="366.00" text-anchor="middle" class="tick">0</text>
<line x1="287.62" y1="75.00" x2="287.62" y2="345.00" stroke="#e0e0e0"/>
<text x="287.62" y="366.00" text-anchor="middle" class="tick">20</text>
<line x1="475.24" y1="75.00" x2="475.24" y2="345.00" stroke="#e0e0e0"/>
<text x="475.24" y="366.00" text-anchor="middle" class="tick">40</text>
<line x1="662.86" y1="75.00" x2="662.86" y2="345.00" stroke="#e0e0e0"/>
<text x="662.86" y="366.00" text-anchor="middle" class="tick">60</text>
<line x1="850.48" y1="75.00" x2="850.48" y2="345.00" stroke="#e0e0e0"/>
<text x="850.48" y="366.00" text-anchor="middle" class="tick">80</text>
<line x1="1038.10" y1="75.00" x2="1038.10" y2="345.00" stroke="#e0e0e0"/>
<text x="1038.10" y="366.00" text-anchor="middle" class="tick">100</text>
<line x1="100.00" y1="345.00" x2="1085.00" y2="345.00" stroke="#e0e0e0"/>
<text x="90.00" y="349.00" text-anchor="end" class="tick">0</text>
<line x1="100.00" y1="304.33" x2="1085.00" y2="304.33" stroke="#e0e0e0"/>
<text x="90.00" y="308.33" text-anchor="end" class="tick">0.5</text>
<line x1="100.00" y1="263.65" x2="1085.00" y2="263.65" stroke="#e0e0e0"/>
<text x="90.00" y="267.65" text-anchor="end" class="tick">1</text>
<line x1="100.00" y1="222.98" x2="1085.00" y2="222.98" stroke="#e0e0e0"/>
<text x="90.00" y="226.98" text-anchor="end" class="tick">1.5</text>
<line x1="100.00" y1="182.30" x2="1085.00" y2="182.30" stroke="#e0e0e0"/>
<text x="90.00" y="186.30" text-anchor="end" class="tick">2</text>
<line x1="100.00" y1="263.65" x2="1085.00" y2="263.65" stroke="#111" stroke-width="1.4" stroke-dasharray="7 5"/>
<line x1="1055.92" y1="75.00" x2="1055.92" y2="345.00" stroke="#555" stroke-width="1.2" stroke-dasharray="3 4"/>
<polyline points="100.00,300.93 101.56,300.88 103.13,300.83 104.69,300.77 106.25,300.72 107.82,300.66 109.38,300.61 110.94,300.56 112.51,300.50 114.07,300.45 115.63,300.39 117.20,300.34 118.76,300.29 120.33,300.23 121.89,300.18 123.45,300.12 125.02,300.07 126.58,300.01 128.14,299.96 129.71,299.90 131.27,299.85 132.83,299.80 134.40,299.74 135.96,299.69 137.52,299.63 139.09,299.58 140.65,299.52 142.21,299.47 143.78,299.41 145.34,299.36 146.90,299.30 148.47,299.24 150.03,299.19 151.60,299.13 153.16,299.08 154.72,299.02 156.29,298.97 157.85,298.91 159.41,298.86 160.98,298.80 162.54,298.75 164.10,298.69 165.67,298.63 167.23,298.58 168.79,298.52 170.36,298.47 171.92,298.41 173.48,298.35 175.05,298.30 176.61,298.24 178.17,298.18 179.74,298.13 181.30,298.07 182.87,298.02 184.43,297.96 185.99,297.90 187.56,297.85 189.12,297.79 190.68,297.73 192.25,297.68 193.81,297.62 195.37,297.56 196.94,297.51 198.50,297.45 200.06,297.39 201.63,297.33 203.19,297.28 204.75,297.22 206.32,297.16 207.88,297.11 209.44,297.05 211.01,296.99 212.57,296.93 214.13,296.88 215.70,296.82 217.26,296.76 218.83,296.70 220.39,296.64 221.95,296.59 223.52,296.53 225.08,296.47 226.64,296.41 228.21,296.36 229.77,296.30 231.33,296.24 232.90,296.18 234.46,296.12 236.02,296.06 237.59,296.01 239.15,295.95 240.71,295.89 242.28,295.83 243.84,295.77 245.40,295.71 246.97,295.65 248.53,295.60 250.10,295.54 251.66,295.48 253.22,295.42 254.79,295.36 256.35,295.30 257.91,295.24 259.48,295.18 261.04,295.12 262.60,295.06 264.17,295.00 265.73,294.95 267.29,294.89 268.86,294.83 270.42,294.77 271.98,294.71 273.55,294.65 275.11,294.59 276.67,294.53 278.24,294.47 279.80,294.41 281.37,294.35 282.93,294.29 284.49,294.23 286.06,294.17 287.62,294.11 289.18,294.10 290.75,294.09 292.31,294.08 293.87,294.08 295.44,294.07 297.00,294.06 298.56,294.05 300.13,294.05 301.69,294.04 303.25,294.03 304.82,294.02 306.38,294.02 307.94,294.01 309.51,294.00 311.07,293.99 312.63,293.99 314.20,293.98 315.76,293.97 317.33,293.96 318.89,293.96 320.45,293.95 322.02,293.94 323.58,293.93 325.14,293.93 326.71,293.92 328.27,293.91 329.83,293.90 331.40,293.89 332.96,293.89 334.52,293.88 336.09,293.87 337.65,293.86 339.21,293.86 340.78,293.85 342.34,293.84 343.90,293.83 345.47,293.83 347.03,293.82 348.60,293.81 350.16,293.80 351.72,293.80 353.29,293.79 354.85,293.78 356.41,293.77 357.98,293.77 359.54,293.76 361.10,293.75 362.67,293.74 364.23,293.74 365.79,293.73 367.36,293.72 368.92,293.71 370.48,293.70 372.05,293.70 373.61,293.69 375.17,293.68 376.74,293.67 378.30,293.67 379.87,293.66 381.43,293.65 382.99,293.64 384.56,293.64 386.12,293.63 387.68,293.62 389.25,293.61 390.81,293.61 392.37,293.60 393.94,293.59 395.50,293.58 397.06,293.58 398.63,293.57 400.19,293.56 401.75,293.55 403.32,293.55 404.88,293.54 406.44,293.53 408.01,293.52 409.57,293.51 411.13,293.51 412.70,293.50 414.26,293.49 415.83,293.48 417.39,293.48 418.95,293.47 420.52,293.46 422.08,293.45 423.64,293.45 425.21,293.44 426.77,293.43 428.33,293.42 429.90,293.42 431.46,293.41 433.02,293.40 434.59,293.39 436.15,293.39 437.71,293.38 439.28,293.37 440.84,293.36 442.40,293.36 443.97,293.35 445.53,293.34 447.10,293.33 448.66,293.32 450.22,293.32 451.79,293.31 453.35,293.30 454.91,293.29 456.48,293.29 458.04,293.28 459.60,293.27 461.17,293.26 462.73,293.26 464.29,293.25 465.86,293.24 467.42,293.23 468.98,293.23 470.55,293.22 472.11,293.21 473.67,293.20 475.24,293.20 476.80,293.20 478.37,293.20 479.93,293.20 481.49,293.20 483.06,293.21 484.62,293.21 486.18,293.21 487.75,293.21 489.31,293.22 490.87,293.22 492.44,293.22 494.00,293.22 495.56,293.23 497.13,293.23 498.69,293.23 500.25,293.23 501.82,293.24 503.38,293.24 504.94,293.24 506.51,293.24 508.07,293.25 509.63,293.25 511.20,293.25 512.76,293.25 514.33,293.26 515.89,293.26 517.45,293.26 519.02,293.26 520.58,293.27 522.14,293.27 523.71,293.27 525.27,293.27 526.83,293.28 528.40,293.28 529.96,293.28 531.52,293.28 533.09,293.29 534.65,293.29 536.21,293.29 537.78,293.29 539.34,293.30 540.90,293.30 542.47,293.30 544.03,293.30 545.60,293.30 547.16,293.31 548.72,293.31 550.29,293.31 551.85,293.31 553.41,293.32 554.98,293.32 556.54,293.32 558.10,293.32 559.67,293.33 561.23,293.33 562.79,293.33 564.36,293.33 565.92,293.34 567.48,293.34 569.05,293.34 570.61,293.34 572.17,293.35 573.74,293.35 575.30,293.35 576.87,293.35 578.43,293.36 579.99,293.36 581.56,293.35 583.12,293.35 584.68,293.35 586.25,293.34 587.81,293.34 589.37,293.33 590.94,293.33 592.50,293.33 594.06,293.32 595.63,293.32 597.19,293.31 598.75,293.31 600.32,293.31 601.88,293.30 603.44,293.30 605.01,293.29 606.57,293.29 608.13,293.29 609.70,293.28 611.26,293.28 612.83,293.27 614.39,293.27 615.95,293.27 617.52,293.26 619.08,293.26 620.64,293.25 622.21,293.25 623.77,293.25 625.33,293.24 626.90,293.24 628.46,293.23 630.02,293.23 631.59,293.23 633.15,293.22 634.71,293.22 636.28,293.22 637.84,293.21 639.40,293.21 640.97,293.20 642.53,293.20 644.10,293.20 645.66,293.19 647.22,293.19 648.79,293.18 650.35,293.18 651.91,293.18 653.48,293.17 655.04,293.17 656.60,293.16 658.17,293.16 659.73,293.16 661.29,293.15 662.86,293.15 664.42,293.15 665.98,293.15 667.55,293.16 669.11,293.16 670.67,293.16 672.24,293.17 673.80,293.17 675.37,293.17 676.93,293.18 678.49,293.18 680.06,293.18 681.62,293.18 683.18,293.19 684.75,293.19 686.31,293.19 687.87,293.20 689.44,293.20 691.00,293.20 692.56,293.21 694.13,293.21 695.69,293.21 697.25,293.22 698.82,293.22 700.38,293.22 701.94,293.23 703.51,293.23 705.07,293.23 706.63,293.23 708.20,293.24 709.76,293.24 711.33,293.24 712.89,293.25 714.45,293.25 716.02,293.25 717.58,293.26 719.14,293.26 720.71,293.26 722.27,293.27 723.83,293.27 725.40,293.27 726.96,293.28 728.52,293.28 730.09,293.28 731.65,293.28 733.21,293.29 734.78,293.29 736.34,293.29 737.90,293.30 739.47,293.30 741.03,293.30 742.60,293.31 744.16,293.31 745.72,293.31 747.29,293.32 748.85,293.32 750.41,293.32 751.98,293.32 753.54,293.33 755.10,293.33 756.67,293.33 758.23,293.34 759.79,293.34 761.36,293.34 762.92,293.35 764.48,293.35 766.05,293.35 767.61,293.36 769.17,293.36 770.74,293.36 772.30,293.37 773.87,293.37 775.43,293.37 776.99,293.37 778.56,293.38 780.12,293.38 781.68,293.38 783.25,293.39 784.81,293.39 786.37,293.39 787.94,293.40 789.50,293.40 791.06,293.40 792.63,293.41 794.19,293.41 795.75,293.41 797.32,293.42 798.88,293.42 800.44,293.42 802.01,293.42 803.57,293.43 805.13,293.43 806.70,293.43 808.26,293.44 809.83,293.44 811.39,293.44 812.95,293.45 814.52,293.45 816.08,293.45 817.64,293.46 819.21,293.46 820.77,293.46 822.33,293.47 823.90,293.47 825.46,293.47 827.02,293.47 828.59,293.48 830.15,293.48 831.71,293.48 833.28,293.49 834.84,293.49 836.40,293.49 837.97,293.50 839.53,293.50 841.10,293.50 842.66,293.51 844.22,293.51 845.79,293.51 847.35,293.51 848.91,293.51 850.48,293.51 852.04,293.50 853.60,293.49 855.17,293.48 856.73,293.47 858.29,293.46 859.86,293.45 861.42,293.44 862.98,293.43 864.55,293.42 866.11,293.41 867.67,293.40 869.24,293.39 870.80,293.38 872.37,293.37 873.93,293.37 875.49,293.36 877.06,293.35 878.62,293.34 880.18,293.33 881.75,293.32 883.31,293.31 884.87,293.30 886.44,293.29 888.00,293.28 889.56,293.27 891.13,293.26 892.69,293.25 894.25,293.24 895.82,293.23 897.38,293.22 898.94,293.21 900.51,293.20 902.07,293.19 903.63,293.18 905.20,293.17 906.76,293.17 908.33,293.16 909.89,293.15 911.45,293.14 913.02,293.13 914.58,293.12 916.14,293.11 917.71,293.10 919.27,293.09 920.83,293.08 922.40,293.07 923.96,293.06 925.52,293.05 927.09,293.04 928.65,293.03 930.21,293.02 931.78,293.01 933.34,293.00 934.90,292.99 936.47,292.98 938.03,292.97 939.60,292.96 941.16,292.96 942.72,292.95 944.29,292.94 945.85,292.93 947.41,292.92 948.98,292.91 950.54,292.90 952.10,292.89 953.67,292.88 955.23,292.87 956.79,292.86 958.36,292.85 959.92,292.84 961.48,292.83 963.05,292.82 964.61,292.81 966.17,292.80 967.74,292.79 969.30,292.78 970.87,292.77 972.43,292.76 973.99,292.75 975.56,292.74 977.12,292.74 978.68,292.73 980.25,292.72 981.81,292.71 983.37,292.70 984.94,292.69 986.50,292.68 988.06,292.67 989.63,292.66 991.19,292.65 992.75,292.64 994.32,292.63 995.88,292.62 997.44,292.61 999.01,292.60 1000.57,292.59 1002.13,292.58 1003.70,292.57 1005.26,292.56 1006.83,292.55 1008.39,292.54 1009.95,292.53 1011.52,292.52 1013.08,292.51 1014.64,292.50 1016.21,292.50 1017.77,292.49 1019.33,292.48 1020.90,292.47 1022.46,292.46 1024.02,292.45 1025.59,292.44 1027.15,292.43 1028.71,292.42 1030.28,292.41 1031.84,292.40 1033.40,292.39 1034.97,292.38 1036.53,292.37 1038.10,292.36 1039.66,292.36 1041.22,292.36 1042.79,292.36 1044.35,292.36 1045.91,292.36 1047.48,292.36 1049.04,292.36 1050.60,292.36 1052.17,292.36 1053.73,292.36 1055.29,292.36 1056.86,292.36 1058.42,292.36 1059.98,292.36 1061.55,292.36 1063.11,292.36 1064.67,292.36 1066.24,292.36 1067.80,292.36 1069.37,292.36 1070.93,292.36 1072.49,292.36 1074.06,292.36 1075.62,292.36 1077.18,292.36 1078.75,292.36 1080.31,292.36 1081.87,292.36 1083.44,292.36 1085.00,292.36" fill="none" stroke="#1565c0" stroke-width="2.2"/>
<polyline points="100.00,289.44 101.56,289.31 103.13,289.18 104.69,289.05 106.25,288.92 107.82,288.79 109.38,288.66 110.94,288.53 112.51,288.40 114.07,288.26 115.63,288.13 117.20,288.00 118.76,287.87 120.33,287.74 121.89,287.60 123.45,287.47 125.02,287.34 126.58,287.21 128.14,287.07 129.71,286.94 131.27,286.81 132.83,286.67 134.40,286.54 135.96,286.40 137.52,286.27 139.09,286.13 140.65,286.00 142.21,285.86 143.78,285.73 145.34,285.59 146.90,285.46 148.47,285.32 150.03,285.19 151.60,285.05 153.16,284.91 154.72,284.78 156.29,284.64 157.85,284.50 159.41,284.36 160.98,284.23 162.54,284.09 164.10,283.95 165.67,283.81 167.23,283.67 168.79,283.53 170.36,283.39 171.92,283.25 173.48,283.12 175.05,282.98 176.61,282.83 178.17,282.67 179.74,282.51 181.30,282.35 182.87,282.19 184.43,282.03 185.99,281.87 187.56,281.70 189.12,281.54 190.68,281.38 192.25,281.22 193.81,281.05 195.37,280.89 196.94,280.72 198.50,280.56 200.06,280.39 201.63,280.23 203.19,280.06 204.75,279.89 206.32,279.73 207.88,279.52 209.44,279.30 211.01,279.07 212.57,278.85 214.13,278.62 215.70,278.39 217.26,278.17 218.83,277.93 220.39,277.70 221.95,277.47 223.52,277.24 225.08,277.00 226.64,276.76 228.21,276.52 229.77,276.28 231.33,276.04 232.90,275.80 234.46,275.55 236.02,275.30 237.59,275.05 239.15,274.80 240.71,274.55 242.28,274.29 243.84,274.03 245.40,273.77 246.97,273.51 248.53,273.24 250.10,272.97 251.66,272.70 253.22,272.42 254.79,272.14 256.35,271.86 257.91,271.57 259.48,271.28 261.04,270.99 262.60,270.69 264.17,270.39 265.73,270.08 267.29,269.77 268.86,269.45 270.42,269.13 271.98,268.80 273.55,268.46 275.11,268.12 276.67,267.77 278.24,267.42 279.80,267.05 281.37,266.68 282.93,266.30 284.49,265.92 286.06,265.52 287.62,265.11 289.18,265.09 290.75,265.06 292.31,265.03 293.87,265.00 295.44,264.98 297.00,264.95 298.56,264.92 300.13,264.90 301.69,264.87 303.25,264.84 304.82,264.81 306.38,264.79 307.94,264.76 309.51,264.73 311.07,264.70 312.63,264.68 314.20,264.65 315.76,264.62 317.33,264.59 318.89,264.57 320.45,264.54 322.02,264.51 323.58,264.48 325.14,264.45 326.71,264.43 328.27,264.40 329.83,264.37 331.40,264.34 332.96,264.32 334.52,264.29 336.09,264.26 337.65,264.23 339.21,264.21 340.78,264.18 342.34,264.15 343.90,264.12 345.47,264.09 347.03,264.07 348.60,264.04 350.16,264.01 351.72,263.98 353.29,263.95 354.85,263.93 356.41,263.90 357.98,263.87 359.54,263.84 361.10,263.82 362.67,263.79 364.23,263.76 365.79,263.73 367.36,263.70 368.92,263.68 370.48,263.65 372.05,263.62 373.61,263.59 375.17,263.56 376.74,263.53 378.30,263.51 379.87,263.48 381.43,263.45 382.99,263.42 384.56,263.39 386.12,263.37 387.68,263.34 389.25,263.31 390.81,263.28 392.37,263.25 393.94,263.22 395.50,263.20 397.06,263.17 398.63,263.14 400.19,263.11 401.75,263.08 403.32,263.05 404.88,263.03 406.44,263.00 408.01,262.97 409.57,262.94 411.13,262.91 412.70,262.88 414.26,262.85 415.83,262.83 417.39,262.80 418.95,262.77 420.52,262.74 422.08,262.71 423.64,262.68 425.21,262.65 426.77,262.62 428.33,262.60 429.90,262.57 431.46,262.54 433.02,262.51 434.59,262.48 436.15,262.45 437.71,262.42 439.28,262.39 440.84,262.36 442.40,262.34 443.97,262.31 445.53,262.28 447.10,262.25 448.66,262.22 450.22,262.19 451.79,262.16 453.35,262.13 454.91,262.10 456.48,262.07 458.04,262.04 459.60,262.01 461.17,261.99 462.73,261.96 464.29,261.93 465.86,261.90 467.42,261.87 468.98,261.84 470.55,261.81 472.11,261.78 473.67,261.75 475.24,261.72 476.80,261.76 478.37,261.80 479.93,261.83 481.49,261.87 483.06,261.91 484.62,261.95 486.18,261.98 487.75,262.02 489.31,262.05 490.87,262.09 492.44,262.13 494.00,262.16 495.56,262.20 497.13,262.23 498.69,262.26 500.25,262.25 501.82,262.24 503.38,262.24 504.94,262.23 506.51,262.23 508.07,262.22 509.63,262.21 511.20,262.21 512.76,262.20 514.33,262.19 515.89,262.19 517.45,262.18 519.02,262.17 520.58,262.17 522.14,262.16 523.71,262.15 525.27,262.15 526.83,262.14 528.40,262.13 529.96,262.13 531.52,262.12 533.09,262.11 534.65,262.11 536.21,262.10 537.78,262.09 539.34,262.09 540.90,262.08 542.47,262.07 544.03,262.06 545.60,262.06 547.16,262.05 548.72,262.04 550.29,262.04 551.85,262.03 553.41,262.02 554.98,262.02 556.54,262.01 558.10,262.00 559.67,262.00 561.23,261.99 562.79,261.98 564.36,261.97 565.92,261.97 567.48,261.96 569.05,261.95 570.61,261.95 572.17,261.94 573.74,261.93 575.30,261.92 576.87,261.92 578.43,261.91 579.99,261.90 581.56,261.90 583.12,261.89 584.68,261.88 586.25,261.87 587.81,261.87 589.37,261.86 590.94,261.85 592.50,261.85 594.06,261.84 595.63,261.83 597.19,261.82 598.75,261.82 600.32,261.81 601.88,261.80 603.44,261.79 605.01,261.79 606.57,261.78 608.13,261.77 609.70,261.76 611.26,261.76 612.83,261.75 614.39,261.74 615.95,261.73 617.52,261.73 619.08,261.72 620.64,261.71 622.21,261.70 623.77,261.70 625.33,261.69 626.90,261.68 628.46,261.67 630.02,261.67 631.59,261.66 633.15,261.65 634.71,261.64 636.28,261.64 637.84,261.63 639.40,261.62 640.97,261.61 642.53,261.61 644.10,261.60 645.66,261.59 647.22,261.58 648.79,261.57 650.35,261.57 651.91,261.56 653.48,261.55 655.04,261.54 656.60,261.53 658.17,261.53 659.73,261.52 661.29,261.51 662.86,261.50 664.42,261.51 665.98,261.51 667.55,261.52 669.11,261.53 670.67,261.53 672.24,261.54 673.80,261.54 675.37,261.55 676.93,261.55 678.49,261.56 680.06,261.57 681.62,261.57 683.18,261.58 684.75,261.58 686.31,261.59 687.87,261.59 689.44,261.60 691.00,261.60 692.56,261.61 694.13,261.61 695.69,261.62 697.25,261.62 698.82,261.63 700.38,261.63 701.94,261.64 703.51,261.64 705.07,261.65 706.63,261.65 708.20,261.66 709.76,261.66 711.33,261.67 712.89,261.67 714.45,261.68 716.02,261.68 717.58,261.69 719.14,261.69 720.71,261.70 722.27,261.70 723.83,261.71 725.40,261.71 726.96,261.71 728.52,261.72 730.09,261.72 731.65,261.73 733.21,261.73 734.78,261.74 736.34,261.74 737.90,261.74 739.47,261.75 741.03,261.75 742.60,261.76 744.16,261.76 745.72,261.77 747.29,261.77 748.85,261.77 750.41,261.78 751.98,261.78 753.54,261.79 755.10,261.79 756.67,261.79 758.23,261.80 759.79,261.80 761.36,261.80 762.92,261.81 764.48,261.81 766.05,261.81 767.61,261.82 769.17,261.82 770.74,261.83 772.30,261.83 773.87,261.83 775.43,261.84 776.99,261.84 778.56,261.84 780.12,261.85 781.68,261.85 783.25,261.85 784.81,261.86 786.37,261.86 787.94,261.86 789.50,261.87 791.06,261.87 792.63,261.87 794.19,261.87 795.75,261.88 797.32,261.88 798.88,261.88 800.44,261.89 802.01,261.89 803.57,261.89 805.13,261.90 806.70,261.90 808.26,261.90 809.83,261.90 811.39,261.91 812.95,261.91 814.52,261.91 816.08,261.92 817.64,261.92 819.21,261.92 820.77,261.92 822.33,261.93 823.90,261.93 825.46,261.93 827.02,261.93 828.59,261.94 830.15,261.94 831.71,261.94 833.28,261.94 834.84,261.95 836.40,261.95 837.97,261.95 839.53,261.95 841.10,261.95 842.66,261.96 844.22,261.96 845.79,261.96 847.35,261.96 848.91,261.97 850.48,261.97 852.04,261.97 853.60,261.97 855.17,261.96 856.73,261.96 858.29,261.96 859.86,261.96 861.42,261.96 862.98,261.96 864.55,261.96 866.11,261.96 867.67,261.95 869.24,261.95 870.80,261.95 872.37,261.95 873.93,261.95 875.49,261.95 877.06,261.95 878.62,261.95 880.18,261.94 881.75,261.94 883.31,261.94 884.87,261.94 886.44,261.94 888.00,261.94 889.56,261.94 891.13,261.93 892.69,261.93 894.25,261.93 895.82,261.93 897.38,261.93 898.94,261.93 900.51,261.93 902.07,261.92 903.63,261.92 905.20,261.92 906.76,261.92 908.33,261.92 909.89,261.92 911.45,261.92 913.02,261.91 914.58,261.91 916.14,261.91 917.71,261.91 919.27,261.91 920.83,261.91 922.40,261.90 923.96,261.90 925.52,261.90 927.09,261.90 928.65,261.90 930.21,261.89 931.78,261.89 933.34,261.89 934.90,261.89 936.47,261.89 938.03,261.89 939.60,261.88 941.16,261.88 942.72,261.88 944.29,261.88 945.85,261.88 947.41,261.87 948.98,261.87 950.54,261.87 952.10,261.87 953.67,261.87 955.23,261.87 956.79,261.86 958.36,261.86 959.92,261.86 961.48,261.86 963.05,261.86 964.61,261.85 966.17,261.85 967.74,261.85 969.30,261.85 970.87,261.84 972.43,261.84 973.99,261.84 975.56,261.84 977.12,261.84 978.68,261.79 980.25,261.74 981.81,261.70 983.37,261.65 984.94,261.60 986.50,261.55 988.06,261.51 989.63,261.46 991.19,261.41 992.75,261.36 994.32,261.31 995.88,261.27 997.44,261.22 999.01,261.17 1000.57,261.12 1002.13,261.07 1003.70,261.02 1005.26,260.97 1006.83,260.92 1008.39,260.87 1009.95,260.82 1011.52,260.77 1013.08,260.72 1014.64,260.67 1016.21,260.62 1017.77,260.57 1019.33,260.52 1020.90,260.47 1022.46,260.42 1024.02,260.37 1025.59,260.32 1027.15,260.27 1028.71,260.22 1030.28,260.16 1031.84,260.11 1033.40,260.06 1034.97,260.01 1036.53,259.96 1038.10,259.90 1039.66,259.90 1041.22,259.90 1042.79,259.90 1044.35,259.90 1045.91,259.90 1047.48,259.90 1049.04,259.90 1050.60,259.90 1052.17,259.90 1053.73,259.90 1055.29,259.90 1056.86,259.90 1058.42,259.90 1059.98,259.90 1061.55,259.90 1063.11,259.90 1064.67,259.90 1066.24,259.90 1067.80,259.90 1069.37,259.90 1070.93,259.90 1072.49,259.90 1074.06,259.90 1075.62,259.90 1077.18,259.90 1078.75,259.90 1080.31,259.90 1081.87,259.90 1083.44,259.90 1085.00,259.90" fill="none" stroke="#ef6c00" stroke-width="2.2"/>
<polyline points="100.00,271.39 101.56,271.15 103.13,270.92 104.69,270.68 106.25,270.43 107.82,270.19 109.38,269.95 110.94,269.71 112.51,269.46 114.07,269.22 115.63,268.97 117.20,268.73 118.76,268.48 120.33,268.23 121.89,267.99 123.45,267.74 125.02,267.49 126.58,267.24 128.14,266.99 129.71,266.73 131.27,266.48 132.83,266.23 134.40,265.97 135.96,265.72 137.52,265.46 139.09,265.21 140.65,264.95 142.21,264.69 143.78,264.44 145.34,264.18 146.90,263.92 148.47,263.65 150.03,263.39 151.60,263.13 153.16,262.87 154.72,262.60 156.29,262.34 157.85,262.07 159.41,261.81 160.98,261.54 162.54,261.27 164.10,261.00 165.67,260.74 167.23,260.47 168.79,260.19 170.36,259.92 171.92,259.65 173.48,259.38 175.05,259.10 176.61,258.83 178.17,258.55 179.74,258.27 181.30,258.00 182.87,257.72 184.43,257.42 185.99,257.02 187.56,256.54 189.12,256.04 190.68,255.55 192.25,255.04 193.81,254.53 195.37,254.02 196.94,253.49 198.50,252.97 200.06,252.43 201.63,251.88 203.19,251.33 204.75,250.77 206.32,250.20 207.88,249.62 209.44,249.02 211.01,248.42 212.57,247.80 214.13,247.17 215.70,246.53 217.26,245.87 218.83,245.19 220.39,244.49 221.95,243.78 223.52,243.04 225.08,242.29 226.64,241.51 228.21,240.70 229.77,239.87 231.33,239.01 232.90,238.11 234.46,237.19 236.02,236.22 237.59,235.22 239.15,234.18 240.71,233.10 242.28,231.97 243.84,230.79 245.40,229.56 246.97,228.27 248.53,226.93 250.10,225.52 251.66,224.05 253.22,222.51 254.79,220.90 256.35,219.21 257.91,217.44 259.48,215.59 261.04,213.65 262.60,211.63 264.17,209.51 265.73,207.30 267.29,204.99 268.86,202.58 270.42,200.08 271.98,197.48 273.55,194.78 275.11,191.99 276.67,189.10 278.24,186.13 279.80,183.07 281.37,179.94 282.93,176.74 284.49,173.49 286.06,170.19 287.62,166.86 289.18,166.72 290.75,166.57 292.31,166.43 293.87,166.29 295.44,166.14 297.00,166.00 298.56,165.85 300.13,165.71 301.69,165.56 303.25,165.41 304.82,165.27 306.38,165.12 307.94,164.97 309.51,164.82 311.07,164.67 312.63,164.52 314.20,164.37 315.76,164.22 317.33,164.07 318.89,163.92 320.45,163.77 322.02,163.62 323.58,163.47 325.14,163.31 326.71,163.16 328.27,163.01 329.83,162.85 331.40,162.70 332.96,162.54 334.52,162.38 336.09,162.23 337.65,162.07 339.21,161.91 340.78,161.75 342.34,161.59 343.90,161.43 345.47,161.27 347.03,161.11 348.60,160.95 350.16,160.79 351.72,160.63 353.29,160.46 354.85,160.30 356.41,160.14 357.98,159.97 359.54,159.80 361.10,159.64 362.67,159.47 364.23,159.30 365.79,159.13 367.36,158.97 368.92,158.79 370.48,158.62 372.05,158.45 373.61,158.28 375.17,158.11 376.74,157.93 378.30,157.76 379.87,157.58 381.43,157.41 382.99,157.23 384.56,157.05 386.12,156.87 387.68,156.69 389.25,156.51 390.81,156.33 392.37,156.15 393.94,155.97 395.50,155.78 397.06,155.60 398.63,155.41 400.19,155.23 401.75,155.04 403.32,154.85 404.88,154.66 406.44,154.47 408.01,154.28 409.57,154.09 411.13,153.90 412.70,153.70 414.26,153.51 415.83,153.31 417.39,153.11 418.95,152.91 420.52,152.71 422.08,152.51 423.64,152.31 425.21,152.11 426.77,151.91 428.33,151.70 429.90,151.49 431.46,151.29 433.02,151.08 434.59,150.87 436.15,150.66 437.71,150.44 439.28,150.23 440.84,150.01 442.40,149.80 443.97,149.58 445.53,149.36 447.10,149.14 448.66,148.92 450.22,148.70 451.79,148.47 453.35,148.25 454.91,148.02 456.48,147.79 458.04,147.56 459.60,147.33 461.17,147.09 462.73,146.86 464.29,146.62 465.86,146.38 467.42,146.15 468.98,145.90 470.55,145.66 472.11,145.42 473.67,145.17 475.24,144.92 476.80,145.32 478.37,145.71 479.93,146.11 481.49,146.51 483.06,146.91 484.62,147.32 486.18,147.72 487.75,148.13 489.31,148.54 490.87,148.95 492.44,149.37 494.00,149.78 495.56,150.20 497.13,150.61 498.69,151.03 500.25,151.45 501.82,151.87 503.38,152.29 504.94,152.72 506.51,153.14 508.07,153.56 509.63,153.99 511.20,154.41 512.76,154.84 514.33,154.75 515.89,154.63 517.45,154.52 519.02,154.40 520.58,154.28 522.14,154.16 523.71,154.04 525.27,153.92 526.83,153.80 528.40,153.68 529.96,153.56 531.52,153.44 533.09,153.31 534.65,153.19 536.21,153.07 537.78,152.94 539.34,152.82 540.90,152.69 542.47,152.57 544.03,152.44 545.60,152.31 547.16,152.19 548.72,152.06 550.29,151.93 551.85,151.80 553.41,151.67 554.98,151.54 556.54,151.41 558.10,151.27 559.67,151.14 561.23,151.01 562.79,150.88 564.36,150.74 565.92,150.61 567.48,150.47 569.05,150.34 570.61,150.20 572.17,150.06 573.74,149.92 575.30,149.78 576.87,149.65 578.43,149.51 579.99,149.37 581.56,149.22 583.12,149.08 584.68,148.94 586.25,148.80 587.81,148.65 589.37,148.51 590.94,148.37 592.50,148.22 594.06,148.07 595.63,147.93 597.19,147.78 598.75,147.63 600.32,147.48 601.88,147.33 603.44,147.18 605.01,147.03 606.57,146.88 608.13,146.73 609.70,146.58 611.26,146.42 612.83,146.27 614.39,146.11 615.95,145.96 617.52,145.80 619.08,145.65 620.64,145.49 622.21,145.33 623.77,145.17 625.33,145.01 626.90,144.85 628.46,144.69 630.02,144.53 631.59,144.37 633.15,144.20 634.71,144.04 636.28,143.88 637.84,143.71 639.40,143.54 640.97,143.38 642.53,143.21 644.10,143.04 645.66,142.87 647.22,142.70 648.79,142.53 650.35,142.36 651.91,142.19 653.48,142.02 655.04,141.85 656.60,141.67 658.17,141.50 659.73,141.32 661.29,141.14 662.86,140.97 664.42,141.27 665.98,141.57 667.55,141.86 669.11,142.15 670.67,142.44 672.24,142.73 673.80,143.02 675.37,143.30 676.93,143.59 678.49,143.87 680.06,144.14 681.62,144.42 683.18,144.69 684.75,144.96 686.31,145.23 687.87,145.50 689.44,145.77 691.00,146.03 692.56,146.29 694.13,146.55 695.69,146.81 697.25,147.06 698.82,147.32 700.38,147.57 701.94,147.82 703.51,148.07 705.07,148.31 706.63,148.55 708.20,148.80 709.76,149.04 711.33,149.27 712.89,149.51 714.45,149.75 716.02,149.98 717.58,150.21 719.14,150.44 720.71,150.66 722.27,150.89 723.83,151.11 725.40,151.34 726.96,151.56 728.52,151.77 730.09,151.99 731.65,152.20 733.21,152.42 734.78,152.63 736.34,152.84 737.90,153.05 739.47,153.25 741.03,153.46 742.60,153.66 744.16,153.86 745.72,154.06 747.29,154.26 748.85,154.46 750.41,154.65 751.98,154.85 753.54,155.04 755.10,155.23 756.67,155.42 758.23,155.60 759.79,155.79 761.36,155.98 762.92,156.16 764.48,156.34 766.05,156.52 767.61,156.70 769.17,156.87 770.74,157.05 772.30,157.22 773.87,157.40 775.43,157.57 776.99,157.74 778.56,157.90 780.12,158.07 781.68,158.24 783.25,158.40 784.81,158.56 786.37,158.73 787.94,158.89 789.50,159.04 791.06,159.20 792.63,159.36 794.19,159.51 795.75,159.67 797.32,159.82 798.88,159.97 800.44,160.12 802.01,160.27 803.57,160.41 805.13,160.56 806.70,160.70 808.26,160.85 809.83,160.99 811.39,161.13 812.95,161.27 814.52,161.41 816.08,161.55 817.64,161.68 819.21,161.82 820.77,161.95 822.33,162.08 823.90,162.21 825.46,162.34 827.02,162.47 828.59,162.60 830.15,162.73 831.71,162.85 833.28,162.98 834.84,163.10 836.40,163.22 837.97,163.35 839.53,163.47 841.10,163.58 842.66,163.70 844.22,163.82 845.79,163.94 847.35,164.05 848.91,164.16 850.48,164.28 852.04,164.32 853.60,164.37 855.17,164.42 856.73,164.46 858.29,164.51 859.86,164.56 861.42,164.60 862.98,164.65 864.55,164.69 866.11,164.74 867.67,164.78 869.24,164.82 870.80,164.87 872.37,164.91 873.93,164.95 875.49,165.00 877.06,165.04 878.62,165.08 880.18,165.12 881.75,165.16 883.31,165.21 884.87,165.25 886.44,165.29 888.00,165.33 889.56,165.37 891.13,165.41 892.69,165.45 894.25,165.49 895.82,165.53 897.38,165.56 898.94,165.60 900.51,165.64 902.07,165.68 903.63,165.71 905.20,165.75 906.76,165.79 908.33,165.82 909.89,165.86 911.45,165.90 913.02,165.93 914.58,165.97 916.14,166.00 917.71,166.04 919.27,166.07 920.83,166.10 922.40,166.14 923.96,166.17 925.52,166.20 927.09,166.24 928.65,166.27 930.21,166.30 931.78,166.33 933.34,166.36 934.90,166.40 936.47,166.43 938.03,166.46 939.60,166.49 941.16,166.52 942.72,166.55 944.29,166.57 945.85,166.60 947.41,166.63 948.98,166.66 950.54,166.69 952.10,166.19 953.67,165.29 955.23,164.37 956.79,163.44 958.36,162.50 959.92,161.54 961.48,160.56 963.05,159.58 964.61,158.58 966.17,157.56 967.74,156.53 969.30,155.48 970.87,154.42 972.43,153.34 973.99,152.25 975.56,151.14 977.12,150.01 978.68,148.86 980.25,147.70 981.81,146.52 983.37,145.32 984.94,144.10 986.50,142.86 988.06,141.60 989.63,140.32 991.19,139.02 992.75,137.70 994.32,136.36 995.88,134.99 997.44,133.60 999.01,132.19 1000.57,130.76 1002.13,129.30 1003.70,127.82 1005.26,126.31 1006.83,124.78 1008.39,123.22 1009.95,121.64 1011.52,120.02 1013.08,118.38 1014.64,116.71 1016.21,115.02 1017.77,113.29 1019.33,111.53 1020.90,109.74 1022.46,107.92 1024.02,106.07 1025.59,104.19 1027.15,102.27 1028.71,100.32 1030.28,98.33 1031.84,96.31 1033.40,94.25 1034.97,92.16 1036.53,90.03 1038.10,87.86 1039.66,87.86 1041.22,87.86 1042.79,87.86 1044.35,87.86 1045.91,87.86 1047.48,87.86 1049.04,87.86 1050.60,87.86 1052.17,87.86 1053.73,87.86 1055.29,87.86 1056.86,87.86 1058.42,87.86 1059.98,87.86 1061.55,87.86 1063.11,87.86 1064.67,87.86 1066.24,87.86 1067.80,87.86 1069.37,87.86 1070.93,87.86 1072.49,87.86 1074.06,87.86 1075.62,87.86 1077.18,87.86 1078.75,87.86 1080.31,87.86 1081.87,87.86 1083.44,87.86 1085.00,87.86" fill="none" stroke="#c62828" stroke-width="2.2"/>
<rect x="100.00" y="75.00" width="985.00" height="270.00" fill="none" stroke="#444"/>
<text x="592.50" y="390.00" text-anchor="middle" class="tick">Temps après impact (min)</text>
<text x="100.0" y="422.0" class="subtitle">Propagation : position du front d’écrasement après initiation</text>
<line x1="100.00" y1="440.00" x2="1085.00" y2="440.00" stroke="#e0e0e0"/>
<text x="90.00" y="444.00" text-anchor="end" class="tick">110</text>
<line x1="100.00" y1="489.09" x2="1085.00" y2="489.09" stroke="#e0e0e0"/>
<text x="90.00" y="493.09" text-anchor="end" class="tick">90</text>
<line x1="100.00" y1="538.18" x2="1085.00" y2="538.18" stroke="#e0e0e0"/>
<text x="90.00" y="542.18" text-anchor="end" class="tick">70</text>
<line x1="100.00" y1="587.27" x2="1085.00" y2="587.27" stroke="#e0e0e0"/>
<text x="90.00" y="591.27" text-anchor="end" class="tick">50</text>
<line x1="100.00" y1="636.36" x2="1085.00" y2="636.36" stroke="#e0e0e0"/>
<text x="90.00" y="640.36" text-anchor="end" class="tick">30</text>
<line x1="100.00" y1="685.45" x2="1085.00" y2="685.45" stroke="#e0e0e0"/>
<text x="90.00" y="689.45" text-anchor="end" class="tick">10</text>
<line x1="100.00" y1="710.00" x2="1085.00" y2="710.00" stroke="#e0e0e0"/>
<text x="90.00" y="714.00" text-anchor="end" class="tick">0</text>
<polyline points="100.00,474.36 127.85,479.27 152.14,481.73 175.07,484.18 198.38,486.64 222.45,489.09 246.68,491.55 270.55,494.00 293.68,496.45 315.85,498.91 336.97,501.36 357.04,503.82 376.08,506.27 394.16,508.73 411.37,511.18 427.77,513.64 443.43,516.09 458.43,518.55 472.82,521.00 486.65,523.45 499.98,525.91 512.84,528.36 525.28,530.82 537.33,533.27 549.01,535.73 560.36,538.18 571.40,540.64 582.15,543.09 592.63,545.55 602.85,548.00 612.84,550.45 622.61,552.91 632.16,555.36 641.52,557.82 650.69,560.27 659.68,562.73 668.51,565.18 677.18,567.64 685.69,570.09 694.06,572.55 702.30,575.00 710.40,577.45 718.38,579.91 726.23,582.36 733.98,584.82 741.61,587.27 749.13,589.73 756.56,592.18 763.88,594.64 771.11,597.09 778.25,599.55 785.30,602.00 792.27,604.45 799.16,606.91 805.96,609.36 812.69,611.82 819.35,614.27 825.93,616.73 832.45,619.18 838.90,621.64 845.28,624.09 851.60,626.55 857.85,629.00 864.05,631.45 870.19,633.91 876.27,636.36 882.30,638.82 888.27,641.27 894.19,643.73 900.06,646.18 905.88,648.64 911.65,651.09 917.38,653.55 923.05,656.00 928.69,658.45 934.27,660.91 939.82,663.36 945.32,665.82 950.78,668.27 956.21,670.73 961.59,673.18 966.93,675.64 972.24,678.09 977.51,680.55 982.74,683.00 987.93,685.45 993.10,687.91 998.23,690.36 1003.32,692.82 1008.38,695.27 1013.41,697.73 1018.41,700.18 1023.38,702.64 1028.31,705.09 1033.22,707.55 1038.10,710.00" fill="none" stroke="#ef6c00" stroke-width="2.2"/>
<polyline points="100.00,476.82 122.39,481.73 141.54,484.18 159.01,486.64 175.33,489.09 190.69,491.55 205.22,494.00 219.03,496.45 232.20,498.91 244.81,501.36 256.92,503.82 268.58,506.27 279.84,508.73 290.73,511.18 301.28,513.64 311.53,516.09 321.49,518.55 331.20,521.00 340.65,523.45 349.89,525.91 358.91,528.36 367.73,530.82 376.36,533.27 384.83,535.73 393.12,538.18 401.27,540.64 409.26,543.09 417.11,545.55 424.83,548.00 432.43,550.45 439.90,552.91 447.26,555.36 454.51,557.82 461.65,560.27 468.70,562.73 475.64,565.18 482.49,567.64 489.26,570.09 495.94,572.55 502.53,575.00 509.05,577.45 515.48,579.91 521.85,582.36 528.14,584.82 534.36,587.27 540.51,589.73 546.60,592.18 552.63,594.64 558.59,597.09 564.50,599.55 570.35,602.00 576.14,604.45 581.88,606.91 587.56,609.36 593.19,611.82 598.78,614.27 604.31,616.73 609.80,619.18 615.24,621.64 620.63,624.09 625.98,626.55 631.29,629.00 636.56,631.45 641.78,633.91 646.96,636.36 652.11,638.82 657.21,641.27 662.28,643.73 667.32,646.18 672.31,648.64 677.27,651.09 682.20,653.55 687.09,656.00 691.95,658.45 696.78,660.91 701.58,663.36 706.34,665.82 711.08,668.27 715.78,670.73 720.46,673.18 725.10,675.64 729.72,678.09 734.31,680.55 738.87,683.00 743.41,685.45 747.92,687.91 752.40,690.36 756.86,692.82 761.29,695.27 765.70,697.73 770.08,700.18 774.44,702.64 778.78,705.09 783.09,707.55 787.39,710.00" fill="none" stroke="#c62828" stroke-width="2.2"/>
<rect x="100.00" y="440.00" width="985.00" height="270.00" fill="none" stroke="#444"/>
<text x="592.50" y="752.00" text-anchor="middle" class="tick">Temps après initiation (s)</text>
<line x1="100.0" y1="756.0" x2="128.0" y2="756.0" stroke="#1565c0" stroke-width="3"/>
<text x="136.0" y="760.0" class="legend">RESISTANT_ENVELOPE</text>
<line x1="415.0" y1="756.0" x2="443.0" y2="756.0" stroke="#ef6c00" stroke-width="3"/>
<text x="451.0" y="760.0" class="legend">CENTRAL_EXPLORATORY</text>
<line x1="730.0" y1="756.0" x2="758.0" y2="756.0" stroke="#c62828" stroke-width="3"/>
<text x="766.0" y="760.0" class="legend">VULNERABLE_ENVELOPE</text>
</svg>
